<svg xmlns="http://www.w3.org/2000/svg" width="640" height="610" viewBox="0 0 640 610">
<rect width="640" height="610" fill="#ffffff"/>
<text x="20" y="34" font-family="sans-serif" font-size="20" font-weight="bold" fill="#111">Presidential Election of 1824</text>
<text x="20" y="58" font-family="sans-serif" font-size="13" fill="#444">Electoral votes by state (plurality winner shown; numbers = winner's share)</text>
<rect x="20" y="96" width="44" height="44" rx="5" fill="#f2f2f2" stroke="#333" stroke-width="1"/><text x="42" y="118" text-anchor="middle" font-family="sans-serif" font-size="13" font-weight="bold" fill="#111">AK</text>
<rect x="548" y="96" width="44" height="44" rx="5" fill="#c96a3b" stroke="#333" stroke-width="1"/><text x="570" y="118" text-anchor="middle" font-family="sans-serif" font-size="13" font-weight="bold" fill="#111">ME</text><text x="570" y="133" text-anchor="middle" font-family="sans-serif" font-size="11" fill="#111">9</text>
<rect x="260" y="144" width="44" height="44" rx="5" fill="#f2f2f2" stroke="#333" stroke-width="1"/><text x="282" y="166" text-anchor="middle" font-family="sans-serif" font-size="13" font-weight="bold" fill="#111">WI</text>
<rect x="500" y="144" width="44" height="44" rx="5" fill="#c96a3b" stroke="#333" stroke-width="1"/><text x="522" y="166" text-anchor="middle" font-family="sans-serif" font-size="13" font-weight="bold" fill="#111">VT</text><text x="522" y="181" text-anchor="middle" font-family="sans-serif" font-size="11" fill="#111">7</text>
<rect x="548" y="144" width="44" height="44" rx="5" fill="#c96a3b" stroke="#333" stroke-width="1"/><text x="570" y="166" text-anchor="middle" font-family="sans-serif" font-size="13" font-weight="bold" fill="#111">NH</text><text x="570" y="181" text-anchor="middle" font-family="sans-serif" font-size="11" fill="#111">8</text>
<rect x="68" y="192" width="44" height="44" rx="5" fill="#f2f2f2" stroke="#333" stroke-width="1"/><text x="90" y="214" text-anchor="middle" font-family="sans-serif" font-size="13" font-weight="bold" fill="#111">WA</text>
<rect x="116" y="192" width="44" height="44" rx="5" fill="#f2f2f2" stroke="#333" stroke-width="1"/><text x="138" y="214" text-anchor="middle" font-family="sans-serif" font-size="13" font-weight="bold" fill="#111">MT</text>
<rect x="164" y="192" width="44" height="44" rx="5" fill="#f2f2f2" stroke="#333" stroke-width="1"/><text x="186" y="214" text-anchor="middle" font-family="sans-serif" font-size="13" font-weight="bold" fill="#111">ND</text>
<rect x="212" y="192" width="44" height="44" rx="5" fill="#f2f2f2" stroke="#333" stroke-width="1"/><text x="234" y="214" text-anchor="middle" font-family="sans-serif" font-size="13" font-weight="bold" fill="#111">MN</text>
<rect x="260" y="192" width="44" height="44" rx="5" fill="#f2f2f2" stroke="#333" stroke-width="1"/><text x="282" y="214" text-anchor="middle" font-family="sans-serif" font-size="13" font-weight="bold" fill="#111">IA</text>
<rect x="356" y="192" width="44" height="44" rx="5" fill="#f2f2f2" stroke="#333" stroke-width="1"/><text x="378" y="214" text-anchor="middle" font-family="sans-serif" font-size="13" font-weight="bold" fill="#111">MI</text>
<rect x="452" y="192" width="44" height="44" rx="5" fill="#3b6ea5" stroke="#333" stroke-width="1"/><text x="474" y="214" text-anchor="middle" font-family="sans-serif" font-size="13" font-weight="bold" fill="#111">NY</text><text x="474" y="229" text-anchor="middle" font-family="sans-serif" font-size="11" fill="#111">1</text>
<rect x="500" y="192" width="44" height="44" rx="5" fill="#c96a3b" stroke="#333" stroke-width="1"/><text x="522" y="214" text-anchor="middle" font-family="sans-serif" font-size="13" font-weight="bold" fill="#111">MA</text><text x="522" y="229" text-anchor="middle" font-family="sans-serif" font-size="11" fill="#111">15</text>
<rect x="20" y="240" width="44" height="44" rx="5" fill="#f2f2f2" stroke="#333" stroke-width="1"/><text x="42" y="262" text-anchor="middle" font-family="sans-serif" font-size="13" font-weight="bold" fill="#111">OR</text>
<rect x="68" y="240" width="44" height="44" rx="5" fill="#f2f2f2" stroke="#333" stroke-width="1"/><text x="90" y="262" text-anchor="middle" font-family="sans-serif" font-size="13" font-weight="bold" fill="#111">ID</text>
<rect x="116" y="240" width="44" height="44" rx="5" fill="#f2f2f2" stroke="#333" stroke-width="1"/><text x="138" y="262" text-anchor="middle" font-family="sans-serif" font-size="13" font-weight="bold" fill="#111">WY</text>
<rect x="164" y="240" width="44" height="44" rx="5" fill="#f2f2f2" stroke="#333" stroke-width="1"/><text x="186" y="262" text-anchor="middle" font-family="sans-serif" font-size="13" font-weight="bold" fill="#111">SD</text>
<rect x="212" y="240" width="44" height="44" rx="5" fill="#f2f2f2" stroke="#333" stroke-width="1"/><text x="234" y="262" text-anchor="middle" font-family="sans-serif" font-size="13" font-weight="bold" fill="#111">NE</text>
<rect x="260" y="240" width="44" height="44" rx="5" fill="#3b6ea5" stroke="#333" stroke-width="1"/><text x="282" y="262" text-anchor="middle" font-family="sans-serif" font-size="13" font-weight="bold" fill="#111">IL</text><text x="282" y="277" text-anchor="middle" font-family="sans-serif" font-size="11" fill="#111">2</text>
<rect x="308" y="240" width="44" height="44" rx="5" fill="#3b6ea5" stroke="#333" stroke-width="1"/><text x="330" y="262" text-anchor="middle" font-family="sans-serif" font-size="13" font-weight="bold" fill="#111">IN</text><text x="330" y="277" text-anchor="middle" font-family="sans-serif" font-size="11" fill="#111">5</text>
<rect x="356" y="240" width="44" height="44" rx="5" fill="#8e6fb0" stroke="#333" stroke-width="1"/><text x="378" y="262" text-anchor="middle" font-family="sans-serif" font-size="13" font-weight="bold" fill="#111">OH</text><text x="378" y="277" text-anchor="middle" font-family="sans-serif" font-size="11" fill="#111">16</text>
<rect x="404" y="240" width="44" height="44" rx="5" fill="#3b6ea5" stroke="#333" stroke-width="1"/><text x="426" y="262" text-anchor="middle" font-family="sans-serif" font-size="13" font-weight="bold" fill="#111">PA</text><text x="426" y="277" text-anchor="middle" font-family="sans-serif" font-size="11" fill="#111">28</text>
<rect x="452" y="240" width="44" height="44" rx="5" fill="#3b6ea5" stroke="#333" stroke-width="1"/><text x="474" y="262" text-anchor="middle" font-family="sans-serif" font-size="13" font-weight="bold" fill="#111">NJ</text><text x="474" y="277" text-anchor="middle" font-family="sans-serif" font-size="11" fill="#111">8</text>
<rect x="500" y="240" width="44" height="44" rx="5" fill="#c96a3b" stroke="#333" stroke-width="1"/><text x="522" y="262" text-anchor="middle" font-family="sans-serif" font-size="13" font-weight="bold" fill="#111">CT</text><text x="522" y="277" text-anchor="middle" font-family="sans-serif" font-size="11" fill="#111">8</text>
<rect x="548" y="240" width="44" height="44" rx="5" fill="#c96a3b" stroke="#333" stroke-width="1"/><text x="570" y="262" text-anchor="middle" font-family="sans-serif" font-size="13" font-weight="bold" fill="#111">RI</text><text x="570" y="277" text-anchor="middle" font-family="sans-serif" font-size="11" fill="#111">4</text>
<rect x="68" y="288" width="44" height="44" rx="5" fill="#f2f2f2" stroke="#333" stroke-width="1"/><text x="90" y="310" text-anchor="middle" font-family="sans-serif" font-size="13" font-weight="bold" fill="#111">CA</text>
<rect x="116" y="288" width="44" height="44" rx="5" fill="#f2f2f2" stroke="#333" stroke-width="1"/><text x="138" y="310" text-anchor="middle" font-family="sans-serif" font-size="13" font-weight="bold" fill="#111">NV</text>
<rect x="164" y="288" width="44" height="44" rx="5" fill="#f2f2f2" stroke="#333" stroke-width="1"/><text x="186" y="310" text-anchor="middle" font-family="sans-serif" font-size="13" font-weight="bold" fill="#111">UT</text>
<rect x="212" y="288" width="44" height="44" rx="5" fill="#f2f2f2" stroke="#333" stroke-width="1"/><text x="234" y="310" text-anchor="middle" font-family="sans-serif" font-size="13" font-weight="bold" fill="#111">CO</text>
<rect x="260" y="288" width="44" height="44" rx="5" fill="#f2f2f2" stroke="#333" stroke-width="1"/><text x="282" y="310" text-anchor="middle" font-family="sans-serif" font-size="13" font-weight="bold" fill="#111">KS</text>
<rect x="308" y="288" width="44" height="44" rx="5" fill="#8e6fb0" stroke="#333" stroke-width="1"/><text x="330" y="310" text-anchor="middle" font-family="sans-serif" font-size="13" font-weight="bold" fill="#111">MO</text><text x="330" y="325" text-anchor="middle" font-family="sans-serif" font-size="11" fill="#111">3</text>
<rect x="356" y="288" width="44" height="44" rx="5" fill="#8e6fb0" stroke="#333" stroke-width="1"/><text x="378" y="310" text-anchor="middle" font-family="sans-serif" font-size="13" font-weight="bold" fill="#111">KY</text><text x="378" y="325" text-anchor="middle" font-family="sans-serif" font-size="11" fill="#111">14</text>
<rect x="404" y="288" width="44" height="44" rx="5" fill="#f2f2f2" stroke="#333" stroke-width="1"/><text x="426" y="310" text-anchor="middle" font-family="sans-serif" font-size="13" font-weight="bold" fill="#111">WV</text>
<rect x="452" y="288" width="44" height="44" rx="5" fill="#7a9e43" stroke="#333" stroke-width="1"/><text x="474" y="310" text-anchor="middle" font-family="sans-serif" font-size="13" font-weight="bold" fill="#111">VA</text><text x="474" y="325" text-anchor="middle" font-family="sans-serif" font-size="11" fill="#111">24</text>
<rect x="500" y="288" width="44" height="44" rx="5" fill="#3b6ea5" stroke="#333" stroke-width="1"/><text x="522" y="310" text-anchor="middle" font-family="sans-serif" font-size="13" font-weight="bold" fill="#111">MD</text><text x="522" y="325" text-anchor="middle" font-family="sans-serif" font-size="11" fill="#111">7</text>
<rect x="548" y="288" width="44" height="44" rx="5" fill="#c96a3b" stroke="#333" stroke-width="1"/><text x="570" y="310" text-anchor="middle" font-family="sans-serif" font-size="13" font-weight="bold" fill="#111">DE</text><text x="570" y="325" text-anchor="middle" font-family="sans-serif" font-size="11" fill="#111">1</text>
<rect x="116" y="336" width="44" height="44" rx="5" fill="#f2f2f2" stroke="#333" stroke-width="1"/><text x="138" y="358" text-anchor="middle" font-family="sans-serif" font-size="13" font-weight="bold" fill="#111">AZ</text>
<rect x="164" y="336" width="44" height="44" rx="5" fill="#f2f2f2" stroke="#333" stroke-width="1"/><text x="186" y="358" text-anchor="middle" font-family="sans-serif" font-size="13" font-weight="bold" fill="#111">NM</text>
<rect x="212" y="336" width="44" height="44" rx="5" fill="#f2f2f2" stroke="#333" stroke-width="1"/><text x="234" y="358" text-anchor="middle" font-family="sans-serif" font-size="13" font-weight="bold" fill="#111">OK</text>
<rect x="260" y="336" width="44" height="44" rx="5" fill="#f2f2f2" stroke="#333" stroke-width="1"/><text x="282" y="358" text-anchor="middle" font-family="sans-serif" font-size="13" font-weight="bold" fill="#111">AR</text>
<rect x="308" y="336" width="44" height="44" rx="5" fill="#3b6ea5" stroke="#333" stroke-width="1"/><text x="330" y="358" text-anchor="middle" font-family="sans-serif" font-size="13" font-weight="bold" fill="#111">TN</text><text x="330" y="373" text-anchor="middle" font-family="sans-serif" font-size="11" fill="#111">11</text>
<rect x="356" y="336" width="44" height="44" rx="5" fill="#3b6ea5" stroke="#333" stroke-width="1"/><text x="378" y="358" text-anchor="middle" font-family="sans-serif" font-size="13" font-weight="bold" fill="#111">MS</text><text x="378" y="373" text-anchor="middle" font-family="sans-serif" font-size="11" fill="#111">3</text>
<rect x="404" y="336" width="44" height="44" rx="5" fill="#3b6ea5" stroke="#333" stroke-width="1"/><text x="426" y="358" text-anchor="middle" font-family="sans-serif" font-size="13" font-weight="bold" fill="#111">AL</text><text x="426" y="373" text-anchor="middle" font-family="sans-serif" font-size="11" fill="#111">5</text>
<rect x="452" y="336" width="44" height="44" rx="5" fill="#7a9e43" stroke="#333" stroke-width="1"/><text x="474" y="358" text-anchor="middle" font-family="sans-serif" font-size="13" font-weight="bold" fill="#111">GA</text><text x="474" y="373" text-anchor="middle" font-family="sans-serif" font-size="11" fill="#111">9</text>
<rect x="500" y="336" width="44" height="44" rx="5" fill="#3b6ea5" stroke="#333" stroke-width="1"/><text x="522" y="358" text-anchor="middle" font-family="sans-serif" font-size="13" font-weight="bold" fill="#111">SC</text><text x="522" y="373" text-anchor="middle" font-family="sans-serif" font-size="11" fill="#111">11</text>
<rect x="548" y="336" width="44" height="44" rx="5" fill="#3b6ea5" stroke="#333" stroke-width="1"/><text x="570" y="358" text-anchor="middle" font-family="sans-serif" font-size="13" font-weight="bold" fill="#111">NC</text><text x="570" y="373" text-anchor="middle" font-family="sans-serif" font-size="11" fill="#111">15</text>
<rect x="212" y="384" width="44" height="44" rx="5" fill="#f2f2f2" stroke="#333" stroke-width="1"/><text x="234" y="406" text-anchor="middle" font-family="sans-serif" font-size="13" font-weight="bold" fill="#111">TX</text>
<rect x="260" y="384" width="44" height="44" rx="5" fill="#3b6ea5" stroke="#333" stroke-width="1"/><text x="282" y="406" text-anchor="middle" font-family="sans-serif" font-size="13" font-weight="bold" fill="#111">LA</text><text x="282" y="421" text-anchor="middle" font-family="sans-serif" font-size="11" fill="#111">3</text>
<rect x="452" y="384" width="44" height="44" rx="5" fill="#f2f2f2" stroke="#333" stroke-width="1"/><text x="474" y="406" text-anchor="middle" font-family="sans-serif" font-size="13" font-weight="bold" fill="#111">FL</text>
<rect x="20" y="432" width="44" height="44" rx="5" fill="#f2f2f2" stroke="#333" stroke-width="1"/><text x="42" y="454" text-anchor="middle" font-family="sans-serif" font-size="13" font-weight="bold" fill="#111">HI</text>
<rect x="20" y="496" width="18" height="14" fill="#3b6ea5" stroke="#333"/>
<text x="44" y="508" font-family="sans-serif" font-size="12" fill="#222">Jackson 99</text>
<rect x="130" y="496" width="18" height="14" fill="#c96a3b" stroke="#333"/>
<text x="154" y="508" font-family="sans-serif" font-size="12" fill="#222">Adams 84</text>
<rect x="228" y="496" width="18" height="14" fill="#7a9e43" stroke="#333"/>
<text x="252" y="508" font-family="sans-serif" font-size="12" fill="#222">Crawford 41</text>
<rect x="344" y="496" width="18" height="14" fill="#8e6fb0" stroke="#333"/>
<text x="368" y="508" font-family="sans-serif" font-size="12" fill="#222">Clay 37</text>
<rect x="436" y="496" width="18" height="14" fill="#f2f2f2" stroke="#333"/>
<text x="460" y="508" font-family="sans-serif" font-size="12" fill="#222">Not yet a state</text>
<text x="20" y="556" font-family="sans-serif" font-size="12" fill="#333">No candidate won a majority (131 needed), so the House of Representatives chose the president: John Quincy Adams.</text>
<text x="20" y="576" font-family="sans-serif" font-size="10" fill="#888">Original diagram generated for APUSH practice materials.</text>
</svg>